<svg xmlns="http://www.w3.org/2000/svg" xmlns:xlink="http://www.w3.org/1999/xlink" version="1.1" x="0px" y="0px" viewBox="0 0 128 160" enable-background="new 0 0 128 128" xml:space="preserve"><path d="M57.543,14.738L33.957,1.012c-0.951-0.553-2.204-0.83-3.457-0.83s-2.506,0.277-3.457,0.83L3.457,14.738  C1.556,15.845,0,18.55,0,20.75v27.5c0,2.2,1.556,4.905,3.457,6.012l23.586,13.727c0.951,0.553,2.204,0.83,3.457,0.83  s2.506-0.277,3.457-0.83l23.586-13.727C59.444,53.155,61,50.45,61,48.25v-27.5C61,18.55,59.444,15.845,57.543,14.738z"/><path d="M124.543,14.738L100.957,1.012c-0.951-0.553-2.204-0.83-3.457-0.83s-2.506,0.277-3.457,0.83L70.457,14.738  C68.556,15.845,67,18.55,67,20.75v27.5c0,2.2,1.556,4.905,3.457,6.012l23.586,13.727c0.951,0.553,2.204,0.83,3.457,0.83  s2.506-0.277,3.457-0.83l23.586-13.727C126.444,53.155,128,50.45,128,48.25v-27.5C128,18.55,126.444,15.845,124.543,14.738z"/><path d="M91.528,73.763L67.472,59.987c-0.954-0.546-2.213-0.819-3.472-0.819s-2.518,0.273-3.472,0.819L36.472,73.763  C34.563,74.855,33,77.55,33,79.75v27.5c0,2.2,1.563,4.895,3.472,5.987l24.057,13.775c0.954,0.546,2.213,0.819,3.472,0.819  s2.518-0.273,3.472-0.819l24.057-13.775C93.438,112.145,95,109.45,95,107.25v-27.5C95,77.55,93.438,74.855,91.528,73.763z"/><text x="0" y="143" fill="#000000" font-size="5px" font-weight="bold" font-family="'Helvetica Neue', Helvetica, Arial-Unicode, Arial, Sans-serif">Created by priyanka</text><text x="0" y="148" fill="#000000" font-size="5px" font-weight="bold" font-family="'Helvetica Neue', Helvetica, Arial-Unicode, Arial, Sans-serif">from the Noun Project</text></svg>